<svg width="35" height="35" viewBox="0 0 35 35" fill="none" xmlns="http://www.w3.org/2000/svg">
<rect width="1439" height="1465" transform="translate(-601 -1419)" fill="white"/>
<g clip-path="url(#clip0)" filter="url(#filter0_d)">
<path d="M27.3623 4H7.63915C5.62981 4 4.00085 5.6289 4.00085 7.6383V27.3616C4.00085 29.371 5.62975 30.9999 7.63915 30.9999H17.3665L17.3831 21.3516H14.8765C14.5507 21.3516 14.2863 21.0882 14.2851 20.7624L14.273 17.6524C14.2718 17.3248 14.537 17.0587 14.8645 17.0587H17.3666V14.0536C17.3666 10.5662 19.4964 8.66728 22.6074 8.66728H25.1602C25.4868 8.66728 25.7517 8.93207 25.7517 9.25875V11.8812C25.7517 12.2077 25.487 12.4724 25.1605 12.4726L23.5939 12.4733C21.9021 12.4733 21.5745 13.2773 21.5745 14.4571V17.0587H25.292C25.6463 17.0587 25.9211 17.368 25.8793 17.7198L25.5107 20.8299C25.4755 21.1275 25.2231 21.3517 24.9234 21.3517H21.5911L21.5745 31H27.3624C29.3717 31 31.0006 29.3711 31.0006 27.3618V7.6383C31.0006 5.6289 29.3717 4 27.3623 4Z" fill="#475993"/>
</g>
<defs>
<filter id="filter0_d" x="0" y="4" width="35" height="35" filterUnits="userSpaceOnUse" color-interpolation-filters="sRGB">
<feFlood flood-opacity="0" result="BackgroundImageFix"/>
<feColorMatrix in="SourceAlpha" type="matrix" values="0 0 0 0 0 0 0 0 0 0 0 0 0 0 0 0 0 0 127 0"/>
<feOffset dy="4"/>
<feGaussianBlur stdDeviation="2"/>
<feColorMatrix type="matrix" values="0 0 0 0 0.545833 0 0 0 0 0.545833 0 0 0 0 0.545833 0 0 0 0.25 0"/>
<feBlend mode="normal" in2="BackgroundImageFix" result="effect1_dropShadow"/>
<feBlend mode="normal" in="SourceGraphic" in2="effect1_dropShadow" result="shape"/>
</filter>
<clipPath id="clip0">
<rect width="27" height="27" fill="white" transform="translate(4 4)"/>
</clipPath>
</defs>
</svg>
