<svg width="35" height="35" viewBox="0 0 35 35" fill="none" xmlns="http://www.w3.org/2000/svg">
<rect width="1439" height="1465" transform="translate(-741 -1419)" fill="white"/>
<g filter="url(#filter0_d)">
<path d="M28.5576 4H6.44237C5.0935 4 4 5.0935 4 6.44237V28.5576C4 29.9065 5.0935 31 6.44237 31H28.5576C29.9065 31 31 29.9065 31 28.5576V6.44237C31 5.0935 29.9065 4 28.5576 4ZM12.3549 27.3136C12.3549 27.7061 12.0367 28.0243 11.6442 28.0243H8.61863C8.22607 28.0243 7.90786 27.7061 7.90786 27.3136V14.6306C7.90786 14.238 8.22607 13.9198 8.61863 13.9198H11.6442C12.0367 13.9198 12.3549 14.238 12.3549 14.6306V27.3136ZM10.1314 12.7243C8.54399 12.7243 7.2571 11.4374 7.2571 9.84995C7.2571 8.26254 8.54399 6.97565 10.1314 6.97565C11.7188 6.97565 13.0057 8.26254 13.0057 9.84995C13.0057 11.4374 11.7189 12.7243 10.1314 12.7243ZM28.1664 27.3708C28.1664 27.7317 27.8738 28.0243 27.5129 28.0243H24.2663C23.9054 28.0243 23.6127 27.7317 23.6127 27.3708V21.4218C23.6127 20.5343 23.8731 17.5329 21.2935 17.5329C19.2926 17.5329 18.8868 19.5873 18.8053 20.5092V27.3708C18.8053 27.7317 18.5127 28.0243 18.1517 28.0243H15.0117C14.6508 28.0243 14.3582 27.7317 14.3582 27.3708V14.5733C14.3582 14.2124 14.6508 13.9198 15.0117 13.9198H18.1517C18.5126 13.9198 18.8053 14.2124 18.8053 14.5733V15.6798C19.5472 14.5664 20.6498 13.707 22.9975 13.707C28.1962 13.707 28.1664 18.5639 28.1664 21.2325V27.3708Z" fill="#0077B7"/>
</g>
<defs>
<filter id="filter0_d" x="0" y="4" width="35" height="35" filterUnits="userSpaceOnUse" color-interpolation-filters="sRGB">
<feFlood flood-opacity="0" result="BackgroundImageFix"/>
<feColorMatrix in="SourceAlpha" type="matrix" values="0 0 0 0 0 0 0 0 0 0 0 0 0 0 0 0 0 0 127 0"/>
<feOffset dy="4"/>
<feGaussianBlur stdDeviation="2"/>
<feColorMatrix type="matrix" values="0 0 0 0 0.545833 0 0 0 0 0.545833 0 0 0 0 0.545833 0 0 0 0.25 0"/>
<feBlend mode="normal" in2="BackgroundImageFix" result="effect1_dropShadow"/>
<feBlend mode="normal" in="SourceGraphic" in2="effect1_dropShadow" result="shape"/>
</filter>
</defs>
</svg>
